<svg xmlns="http://www.w3.org/2000/svg" viewBox="0 0 512 256" fill="none" stroke-linecap="round" stroke-linejoin="round">
  <circle cx="196" cy="78" r="40" fill="#FBBF24"/>
  <g stroke="#F59E0B" stroke-width="6">
    <line x1="196" y1="10" x2="196" y2="24"/>
    <line x1="128" y1="78" x2="142" y2="78"/>
    <line x1="148" y1="30" x2="158" y2="40"/>
    <line x1="244" y1="30" x2="234" y2="40"/>
    <line x1="148" y1="126" x2="158" y2="116"/>
    <line x1="244" y1="126" x2="234" y2="116"/>
  </g>

  <path d="M 284 22
           C 302 28 312 62 310 104
           C 308 140 306 172 298 198
           C 290 222 278 244 264 246
           C 250 246 238 234 232 220
           C 222 204 212 186 204 166
           C 196 144 192 122 196 100
           C 202 72 214 46 232 32
           C 252 20 272 18 284 22 Z"
        fill="#10B981" stroke="#064E3B" stroke-width="10"/>

  <g stroke="#3B82F6" stroke-width="8">
    <line x1="372" y1="124" x2="360" y2="152"/>
    <line x1="406" y1="144" x2="394" y2="172"/>
    <line x1="440" y1="128" x2="428" y2="156"/>
    <line x1="372" y1="180" x2="360" y2="208"/>
    <line x1="406" y1="200" x2="394" y2="228"/>
    <line x1="440" y1="184" x2="428" y2="212"/>
  </g>
</svg>
